<?xml version="1.0" encoding="UTF-8"?>
<!DOCTYPE svg PUBLIC "-//W3C//DTD SVG 1.0//EN" "http://www.w3.org/TR/2001/REC-SVG-20010904/DTD/svg10.dtd">
<!-- Creator: CorelDRAW -->
<svg xmlns="http://www.w3.org/2000/svg" xml:space="preserve" width="2.66193in" height="0.485067in" version="1.0" style="shape-rendering:geometricPrecision; text-rendering:geometricPrecision; image-rendering:optimizeQuality; fill-rule:evenodd; clip-rule:evenodd"
viewBox="0 0 1006.18 183.35"
 xmlns:xlink="http://www.w3.org/1999/xlink"
 xmlns:xodm="http://www.corel.com/coreldraw/odm/2003">
 <defs>
  <style type="text/css">
   <![CDATA[
    .str0 {stroke:#373435;stroke-width:2.63;stroke-miterlimit:2.61313}
    .fil0 {fill:#010101}
    .fil2 {fill:black}
    .fil1 {fill:white}
   ]]>
  </style>
 </defs>
 <g id="Capa_x0020_1">
  <metadata id="CorelCorpID_0Corel-Layer"/>
  <g id="_2782546809712">
   <rect class="fil0 str0" x="1.31" y="1.31" width="1003.55" height="180.72"/>
   <path class="fil1" d="M387.69 32.22c4.52,7.4 2.56,19.99 2.56,33.3l-0.03 73.03c-0.99,10.71 -7.91,10.53 -14.1,11.83 -7.25,1.52 -4.89,-0.7 -5.86,4.76l3.01 0.33c12.13,0.4 38.61,0.15 47.31,0.38l-0.53 -3.98c-28.06,-4.36 -19.95,-5.31 -20.06,-76.26 -0.01,-5.47 0.03,-10.94 0.07,-16.41l0.24 -11.24c1.06,-4.24 -1.19,-1.08 1.94,-3.31 -1.61,3.97 33.51,89.26 39.65,105.74 2.24,6.03 2.31,5.35 5.06,6.44 7.94,2.9 11.66,-15.12 15.33,-23.49 8.47,-19.32 26.49,-73.17 35.51,-89.23l0.01 97.22c-0.98,16.97 -16.9,2.97 -19.39,13.8 2.63,4.12 -4.98,2.27 14.59,1.99l42.12 -0.38c4.12,-1.42 3.08,2.09 2.95,-5.39 -10.14,-4.58 -19.94,5.98 -19.95,-13.82 -0.01,-22.72 -1.04,-93.13 0.72,-105.38 13.98,-3.78 15.59,2.96 16.05,-7 -0.66,-1.48 -27.4,0.38 -37.46,-0.25 -1.75,1.44 -41.49,101.68 -40.98,104.64 -0.3,-0.19 -0.71,-0.88 -0.83,-0.65 -1.43,2.68 -11.52,-24.33 -11.59,-24.5l-25.7 -66.35c-1.65,-4.08 -3.47,-10.23 -5.41,-13.49 -4.89,-1.01 -34.92,-1.41 -40.3,-0.62 -1.49,0.92 -1.59,0.6 -2.16,3.06 0.08,2.6 1.19,2.74 1.63,3 4.57,-0.26 12.51,1.61 15.6,2.23z"/>
   <path class="fil1" d="M56.93 150.58c-1.74,-9.18 -3.43,-52.62 -0.98,-60.15 7.12,-2.11 44.32,-4.61 52.94,12.34 2.7,5.32 5.19,9.74 5.56,17.06 0.76,14.8 -10.09,28.78 -23.65,30.45 -8.57,1.05 -24.55,-0.77 -33.87,0.3zm-1.7 -97.68c-0.01,-24.82 -4.49,-22.29 19.23,-22.24 8.18,0.02 12.01,-0.59 19.04,2.22 24.38,9.74 19.56,44.55 -3.93,51.4 -10.31,3 -24.12,1.07 -33.99,-0.45l-0.36 -30.93zm67.34 23.93c19.03,-15.22 11.44,-38.33 -9.69,-48.31 -15.39,-7.27 -55.32,-4.71 -77.5,-4.77 -20.37,0.48 -19.68,-0.74 -19.82,6.03 14.02,1.74 7.5,0.87 11.46,1.46 4.4,0.66 5.15,1.74 7.6,3.99 0.72,19.45 0.13,39.78 0.16,59.33 0.02,13.19 0.24,44.63 -1.37,53.74 -16.12,3.61 -18.55,-0.97 -18.57,8.12 3.82,1.79 9.93,1.02 14.24,1.01 25.15,-0.08 73.21,3.67 91.54,-7.83 18.99,-11.91 28.08,-35.69 3.32,-54.04 -7.59,-5.62 -12.34,-4.56 -19.32,-8.56 5.38,-3.73 12.71,-5.96 17.95,-10.16z"/>
   <path class="fil1" d="M221.86 96.08c0.34,4.98 12.61,23.46 16.66,28.57l1.15 1.37c1.48,1.89 2.71,4.13 3.96,6.02 4.29,5.5 5.16,6.17 9.17,10.48 -1.47,4.17 -14.46,10.4 -19.43,11.45 -27.87,5.88 -31.06,-35.11 -20.32,-49.41 3.92,-5.22 4.85,-5.75 8.8,-8.48zm9.1 -24.3c-2.33,-12.14 -4.07,-19.07 -3.4,-32.82 0.76,-15.67 10.63,-19 16.22,-13 13.56,14.55 -3.27,42.69 -12.82,45.82zm91.51 61.13l-7.75 1.34c-2.34,6.29 -1.03,10.52 -9.62,16.81 -14.13,10.35 -31.61,-7.57 -34.44,-13.59l34.54 -52.93c6.24,-6.1 11.73,-4.83 15.93,-6.74 0.32,-4.45 0.08,-1.26 0.23,-4.54 -3.54,-0.17 -4.93,-0.25 -8.59,-0.13l-31.24 0.17c-7.38,2.5 -2.06,6.3 3.01,8.07 3.33,1.16 4.25,2.26 6.14,3.6 0.6,7.25 -1.31,8.68 -7.06,18.47 -0.2,0.33 -3.06,4.06 -3.71,4.98l-14.91 22.71c-3.46,-4.76 -6.33,-8.4 -15.06,-20.42 -5.59,-7.7 -8.94,-15.37 -13.15,-23.48 -4.49,-8.64 -1.6,-5.31 10.62,-21.57 17.67,-23.52 10.43,-44.76 -2.97,-47.78 -10.72,-2.42 -22.14,3.7 -26.88,9.16 -15.73,18.13 0.27,59.46 0.1,60.91 -0.31,2.69 -1.24,3.47 -3.2,5.62l-13.67 13.89c-7.62,8.75 -13.31,12.82 -13.58,23.65 -0.34,13.73 5.34,18.57 12.95,24.47 10.93,8.47 30.22,7.56 43.9,1.4 3.6,-1.62 9.97,-6.36 11.79,-7.1 5.12,-2.09 8.52,6.19 24.37,10.34 21.2,5.54 44.21,-6.53 42.26,-27.31z"/>
   <path class="fil2" d="M56.93 150.58c16.94,-0.17 25.3,0.75 33.87,-0.3 13.56,-1.67 24.41,-15.65 23.65,-30.45 -0.38,-7.32 -2.86,-11.75 -5.56,-17.06 -8.62,-16.95 -45.69,-13.45 -52.82,-11.34 -2.45,7.53 -0.89,49.96 0.85,59.15z"/>
   <path class="fil2" d="M55.22 52.9l0.36 30.93c11.62,1.53 23.68,3.45 33.99,0.45 23.49,-6.84 28.3,-41.66 3.93,-51.4 -7.03,-2.81 -10.86,-2.2 -19.04,-2.22 -23.73,-0.05 -19.24,-2.58 -19.23,22.24z"/>
   <path class="fil2" d="M221.86 96.08c-4.1,3.02 -4.89,3.27 -8.8,8.48 -10.74,14.3 -7.56,55.28 20.32,49.41 4.98,-1.05 17.96,-7.27 19.43,-11.45 -4.94,-3.98 -5.59,-5.11 -9.17,-10.48 -1.25,-1.89 -2.48,-4.13 -3.96,-6.02l-1.15 -1.37c-4.05,-5.11 -15.23,-23.18 -16.66,-28.57z"/>
   <path class="fil2" d="M230.95 71.78c9.55,-3.14 26.38,-31.27 12.82,-45.82 -5.6,-6.01 -15.47,-2.67 -16.22,13 -0.67,13.75 1.07,20.69 3.4,32.82z"/>
   <g>
    <path class="fil1" d="M884.23 164.53c2.48,-7.39 4.77,-10.36 9.03,-16.7l11.1 -15.37c0.79,1.31 4.78,-3.51 -1.42,8.67 -3.94,7.75 -10.08,20.75 -18.71,23.4zm-233.96 -48.6c-2.06,-11.64 0.31,-20.36 3.13,-29.09 2.79,1.45 3.21,2.02 4.91,3.52 1.53,2.9 1.85,20.35 -8.05,25.57zm109.09 -14.34c1.5,-6.56 11.73,-22.69 18.44,-24.12 -4.22,10.36 -6.86,20.94 -18.44,24.12zm-30.47 3.99c-1.87,-7.34 -1.06,-16.73 -0.49,-24.64 0.38,-5.23 2.06,-11.59 0.25,-16.69 -0.73,-2.06 -1.02,-2.08 -1.22,-2.51 -1.17,-2.52 -0.28,-0.26 -0.97,-2.23 -10,0.51 -9.82,8.85 -16.14,14.23l-6.41 -5.58c-3.46,-2.13 -0.98,0.12 -3.56,-2.98 4.01,-5.69 2.64,-6.91 0.9,-12.02l-4.47 0c-5.75,5.6 -7,16.74 -8.21,26.57 -4.66,4.07 -8.82,7.04 -15.72,7.19 -11.28,0.23 -7.27,-6.57 -14.23,-9.71 0.87,-12.41 7.17,-10.65 7.65,-17.64l-4.52 -3.97c-7.3,1.68 -9.58,8.91 -12,15.17 -3.09,7.98 -5.34,10.23 -10.97,16.5 -5.54,6.17 -20.52,24.63 -28.66,25.07 -1.35,-9.9 0.72,-22.83 6.08,-31.31 3.9,-6.16 3.26,-1.83 10.18,-1.12l0.3 -8.51c-2.24,-6.71 -15.18,-12.06 -23.01,14.96 -2.96,10.21 -7.06,30.73 6.22,35.59 16.37,0.84 20.48,-15.17 30.72,-19.46 -1.54,8.18 -0.52,17.23 7.12,21.54 13.18,7.43 20.56,-15.8 20.87,-28.25 21.15,-1.13 13.31,-4.18 20.09,4.87 2.15,2.86 3.52,2.75 6.89,2.96 2.05,-2.95 3.08,-5.82 3.85,-10.04 7.61,1.59 0.25,1.88 8.69,3.43 4,-3.72 5.38,-8.99 10.34,-11.51 -0.51,10.34 -0.5,19.98 4.66,25.92 8.02,9.25 12.63,1.82 19.28,-1.74 -4.62,22.52 -15.18,27.56 -12.71,60.17 7.82,5.53 12.67,7.43 15.52,-5.89 3.55,-16.62 7.01,-31.78 8.09,-49.24 6.14,0.36 6.14,2.28 11.32,-1.14 7.68,-5.07 19.16,-14.89 27.89,-17.95l3.59 8.48c4.43,6.55 10.85,2.08 13.8,-3.09l5.44 -7.64c0.4,10.66 0.98,18.8 8.75,22.94 4.66,2.49 7.95,0.54 10.5,-2.06l6.42 -8.55c0.12,-0.15 0.4,-0.46 0.61,-0.68l3.59 2.79c2.57,1.62 1.2,0.99 3.97,1.53 7.84,-8.25 12.7,-28.92 21.41,-39.57 3.22,6.68 -7.45,32.44 5.04,38.32 10.67,2.06 8.75,-3.5 15.11,-7.24 12.03,7.03 11.51,8.12 23.05,-9.41 1.88,-2.86 2.21,-2.79 4.68,-4.32 -0.85,19.81 -5.14,19.13 -16.44,32.82 -7.7,9.32 -33.65,40.51 -28.79,50.66 3.39,3.19 6.7,7.19 13.78,4.8 13.13,-4.43 24.39,-27.3 29.54,-39.44l5.18 -16.19c2.97,-10.81 1.32,-7.4 8.48,-14.39l20.42 -18.86c2.98,-2.76 0.61,-0.04 2.63,-3 -0.81,-1.59 -2.65,-4.17 -3.34,-5.33 -10.56,0.27 -12.58,12.13 -22.41,13.89 0.68,-6.12 1.66,-11.38 1.42,-18.67 -0.13,-3.98 0.02,-6.31 -2.2,-8.06 -3.58,-2.81 -6.6,-1.76 -9.14,1.11 -5.15,5.82 -7.45,12.63 -11.31,18.84 -0.85,1.36 -0.84,1.66 -1.86,2.98 -2.1,2.7 -0.63,1.4 -3.8,3.12l2.55 -14.13c2.18,-6.99 9.03,-12.3 0.16,-16.73 -8.29,3.22 -7.74,13.41 -11.31,20.63 -1.61,3.26 -11.01,15.84 -13.58,17.08 -0.9,-12.2 7.5,-40.56 -1.56,-44.77 -7.85,-0.84 -11.52,5.36 -14.58,10.39 -3.27,5.39 -6.45,12.18 -9.14,15.62 0.44,-7.97 8.53,-17.96 -1.47,-20.24 -6.81,4.49 -6.83,18.35 -11.17,25.71l-9.01 16.1c-2.47,3.75 -1.86,5.26 -5.79,6.07 -2.56,-16.53 2.74,-27.51 1.77,-42.42 -4.57,-3.89 -0.84,-3.32 -7.28,-3.59 -2.26,2.91 -3.54,6.18 -5.04,9.41l-10.78 -1.9c-1.64,2.61 -2.52,3 -3.97,5.12 -1.6,2.35 -1.38,3.64 -3.22,5.66l-11.21 6.86c0.04,-9.59 0.66,-18.33 -7.75,-19.9 -4.19,-0.78 -6.8,1.57 -9.2,3.74 -2.72,2.45 -4.96,5.7 -8.34,7.54 0.53,-9.83 4.39,-16.1 7.41,-24.41 -2.06,-3.89 -2.5,-4.32 -7.44,-5.23 -3.19,4.45 -5.3,9.47 -7,15.55 -1.62,5.81 -2.05,13.67 -4.59,18.17 -2.84,5.04 -15.23,22.77 -20.18,23.85z"/>
    <path class="fil2" d="M650.27 115.93c9.9,-5.22 9.58,-22.67 8.05,-25.57 -1.7,-1.5 -2.12,-2.07 -4.91,-3.52 -2.83,8.74 -5.2,17.45 -3.13,29.09z"/>
    <path class="fil2" d="M884.26 164.56c8.63,-2.67 14.73,-15.69 18.66,-23.44 6.17,-12.2 5.36,-12.12 4.57,-13.43l-14.24 20.15c-4.24,6.35 -6.53,9.33 -8.99,16.73z"/>
    <path class="fil2" d="M800.81 93.54c7.76,-2.13 9.53,-9.22 12.35,-16.16 -4.5,0.96 -11.35,11.76 -12.35,16.16z"/>
   </g>
  </g>
 </g>
</svg>
